<svg id="data_jar_20px" xmlns="http://www.w3.org/2000/svg" width="20" height="20" viewBox="0 0 20 20">
  <rect id="Rectangle_597" data-name="Rectangle 597" width="20" height="20" fill="none" opacity="0.3"/>
  <path id="Icon_metro-database" data-name="Icon metro-database" d="M10.482,1.928c-4.369,0-7.911,1.107-7.911,2.472V6.378c0,1.365,3.542,2.472,7.911,2.472s7.911-1.107,7.911-2.472V4.4c0-1.365-3.542-2.472-7.911-2.472Zm0,8.406c-4.369,0-7.911-1.107-7.911-2.472v2.967c0,1.365,3.542,2.472,7.911,2.472s7.911-1.107,7.911-2.472V7.861C18.393,9.227,14.851,10.334,10.482,10.334Zm0,4.45c-4.369,0-7.911-1.107-7.911-2.472v2.967c0,1.365,3.542,2.472,7.911,2.472s7.911-1.107,7.911-2.472V12.312C18.393,13.677,14.851,14.784,10.482,14.784Z" transform="translate(-0.57 0.072)" fill="#020b39"/>
</svg>
