<svg id="Frontend_jar_20px" xmlns="http://www.w3.org/2000/svg" width="20" height="20" viewBox="0 0 20 20">
  <rect id="Rectangle_597" data-name="Rectangle 597" width="20" height="20" fill="none" opacity="0.3"/>
  <path id="Icon_awesome-code" data-name="Icon awesome-code" d="M7.55,13.849,5.9,13.37a.325.325,0,0,1-.222-.4L9.372.237a.325.325,0,0,1,.4-.222l1.651.479a.325.325,0,0,1,.222.4l-3.7,12.73a.324.324,0,0,1-.4.222ZM4.463,10.812,5.641,9.556a.325.325,0,0,0-.022-.466L3.166,6.932,5.619,4.775a.323.323,0,0,0,.022-.466L4.463,3.053A.325.325,0,0,0,4,3.039L.1,6.694a.323.323,0,0,0,0,.474L4,10.825a.323.323,0,0,0,.46-.014Zm8.858.016,3.9-3.658a.323.323,0,0,0,0-.474l-3.9-3.66a.328.328,0,0,0-.46.014L11.684,4.306a.325.325,0,0,0,.022.466l2.453,2.16L11.705,9.09a.323.323,0,0,0-.022.466l1.178,1.256A.325.325,0,0,0,13.322,10.828Z" transform="translate(1.002 2.997)" fill="#010a38"/>
</svg>
