<svg id="Model_jar_20px" xmlns="http://www.w3.org/2000/svg" width="20" height="20" viewBox="0 0 20 20">
  <rect id="Rectangle_597" data-name="Rectangle 597" width="20" height="20" fill="none" opacity="0.3"/>
  <g id="Icon_ionic-md-cube" data-name="Icon ionic-md-cube" transform="translate(-0.658 -0.578)">
    <path id="Path_10890" data-name="Path 10890" d="M26.476,11.82a.472.472,0,0,0-.192.038L19.6,15.324h0a.949.949,0,0,0-.471.806v7a.454.454,0,0,0,.478.433.515.515,0,0,0,.23-.053.082.082,0,0,0,.019-.011l6.576-3.489.011,0a.956.956,0,0,0,.516-.832V12.252A.456.456,0,0,0,26.476,11.82Z" transform="translate(-7.841 -4.447)" fill="#020b39"/>
    <path id="Path_10891" data-name="Path 10891" d="M18.721,5.506,11.881,2.431a2.161,2.161,0,0,0-.625-.181,2.124,2.124,0,0,0-.621.181L3.789,5.506s-.3.124-.3.358c0,.248.312.433.312.433l6.982,3.681a1.186,1.186,0,0,0,.952,0l6.979-3.685A.545.545,0,0,0,19,5.856C19,5.619,18.721,5.506,18.721,5.506Z" transform="translate(-0.575)" fill="#020b39"/>
    <path id="Path_10892" data-name="Path 10892" d="M9.609,15.321,2.92,11.85a.528.528,0,0,0-.192-.038.456.456,0,0,0-.478.433v6.918A.956.956,0,0,0,2.766,20l.008,0,6.576,3.489a.5.5,0,0,0,.248.064.459.459,0,0,0,.478-.433V16.126A.941.941,0,0,0,9.609,15.321Z" transform="translate(0 -4.443)" fill="#020b39"/>
  </g>
</svg>
