<svg id="Pipeline_jar_20px" xmlns="http://www.w3.org/2000/svg" width="20" height="20" viewBox="0 0 20 20">
  <rect id="Rectangle_597" data-name="Rectangle 597" width="20" height="20" fill="none" opacity="0.3"/>
  <g id="pipe-svgrepo-com_1_" data-name="pipe-svgrepo-com (1)" transform="translate(2.377 -0.643)">
    <g id="Group_10163" data-name="Group 10163" transform="translate(0 3.014)">
      <path id="Path_10882" data-name="Path 10882" d="M16.094,11.192a1.329,1.329,0,0,0-1.317,1.151H9.331V11.121a4.192,4.192,0,1,0-2.994,0v1.222H2.646A1.329,1.329,0,0,0,0,12.512v3.406a1.329,1.329,0,0,0,2.646.168H8.495V19.8a.427.427,0,0,0,.427.427H11.81a.427.427,0,0,0,.427-.427V16.086h2.537a1.329,1.329,0,0,0,2.648-.159V12.521A1.329,1.329,0,0,0,16.094,11.192ZM4.765,7.206a3.069,3.069,0,1,1,5.921,1.133A4.189,4.189,0,0,0,8.032,7.225l-1.814-1.4a.561.561,0,0,0-.686.889l.947.731a4.209,4.209,0,0,0-1.5.894A3.052,3.052,0,0,1,4.765,7.206Zm3.069,3.069A3.061,3.061,0,0,1,5.6,9.308a3.076,3.076,0,0,1,2.233-.965h0a3.068,3.068,0,0,1,2.234.965A3.06,3.06,0,0,1,7.834,10.275Z" transform="translate(-1.065 -4.067)" fill="#020b39"/>
    </g>
  </g>
</svg>
