<svg id="solution_jar_20px" xmlns="http://www.w3.org/2000/svg" width="20" height="20" viewBox="0 0 20 20">
  <rect id="Rectangle_597" data-name="Rectangle 597" width="20" height="20" fill="none" opacity="0.3"/>
  <g id="lamp-charge-svgrepo-com" transform="translate(-0.641 -0.004)">
    <path id="Path_10880" data-name="Path 10880" d="M14.037,21.685a.521.521,0,0,1-.158-.025,9.3,9.3,0,0,0-5.09,0,.58.58,0,0,1-.714-.4.573.573,0,0,1,.4-.714,10.5,10.5,0,0,1,5.73,0,.577.577,0,0,1,.4.714A.6.6,0,0,1,14.037,21.685Z" transform="translate(-0.692 -3.078)" fill="#010a37"/>
    <path id="Path_10881" data-name="Path 10881" d="M16.626,5.622a6.573,6.573,0,0,0-4.467-3.454A6.708,6.708,0,0,0,6.47,3.48a6.62,6.62,0,0,0-2.5,5.207,7.187,7.187,0,0,0,3.23,5.7v.689a1.114,1.114,0,0,0,.266.88,1.432,1.432,0,0,0,1.063.332h4.26a1.387,1.387,0,0,0,1.021-.357,1.242,1.242,0,0,0,.3-.963v-.581A6.959,6.959,0,0,0,16.626,5.622ZM12.067,9.99l-.889,1.545a.628.628,0,0,1-.54.316.57.57,0,0,1-.307-.083.626.626,0,0,1-.233-.847L10.8,9.691h-.7a.992.992,0,0,1-.9-1.553L10.1,6.594a.621.621,0,1,1,1.08.614l-.706,1.229h.7a.992.992,0,0,1,.9,1.553Z" fill="#010a37"/>
  </g>
</svg>
